<svg width="230" height="50" viewBox="0 0 230 50" fill="none" xmlns="http://www.w3.org/2000/svg">
<rect width="230" height="50" rx="25" fill="#FF7878"/>
<path d="M62.755 28.25C62.915 28.26 63.055 28.3 63.175 28.37C63.295 28.43 63.38 28.54 63.43 28.7C63.54 29.07 63.41 29.32 63.04 29.45C62.92 29.5 62.795 29.53 62.665 29.54C62.545 29.55 62.435 29.555 62.335 29.555H55.525C55.325 29.555 55.115 29.555 54.895 29.555C54.675 29.555 54.455 29.55 54.235 29.54C53.965 29.53 53.775 29.445 53.665 29.285C53.565 29.125 53.505 28.93 53.485 28.7L53.425 27.71C53.415 27.6 53.415 27.47 53.425 27.32C53.445 27.16 53.5 27.025 53.59 26.915C53.73 26.775 53.89 26.685 54.07 26.645C54.25 26.605 54.45 26.585 54.67 26.585H55.135C55.185 26.585 55.225 26.59 55.255 26.6C55.285 26.6 55.315 26.6 55.345 26.6H61.72V26.075H55.195C55.145 26.075 55.09 26.075 55.03 26.075C54.98 26.065 54.925 26.065 54.865 26.075H54.505C54.405 26.075 54.315 26.075 54.235 26.075C54.155 26.075 54.075 26.065 53.995 26.045C53.905 26.025 53.82 26.005 53.74 25.985C53.67 25.965 53.61 25.915 53.56 25.835C53.5 25.725 53.46 25.62 53.44 25.52C53.42 25.42 53.43 25.31 53.47 25.19C53.5 25.11 53.545 25.05 53.605 25.01C53.665 24.96 53.735 24.92 53.815 24.89C53.895 24.86 53.97 24.84 54.04 24.83C54.12 24.81 54.19 24.795 54.25 24.785C54.33 24.775 54.405 24.77 54.475 24.77C54.555 24.76 54.635 24.755 54.715 24.755H54.97C55.02 24.765 55.065 24.77 55.105 24.77C55.155 24.77 55.205 24.77 55.255 24.77H61.87C62.38 24.77 62.77 24.85 63.04 25.01C63.31 25.16 63.445 25.41 63.445 25.76V26.81C63.445 26.95 63.41 27.085 63.34 27.215C63.28 27.345 63.17 27.46 63.01 27.56C62.88 27.64 62.75 27.685 62.62 27.695C62.49 27.695 62.36 27.695 62.23 27.695H55.27V28.25H62.755ZM56.155 17.27C57.175 17.34 57.95 17.665 58.48 18.245C59.02 18.825 59.255 19.65 59.185 20.72C59.115 21.62 58.835 22.315 58.345 22.805C57.865 23.295 57.145 23.54 56.185 23.54C55.925 23.54 55.69 23.54 55.48 23.54C55.28 23.54 55.085 23.53 54.895 23.51C54.705 23.48 54.515 23.43 54.325 23.36C54.135 23.29 53.925 23.185 53.695 23.045C53.475 22.905 53.29 22.735 53.14 22.535C53 22.335 52.885 22.12 52.795 21.89C52.705 21.65 52.64 21.405 52.6 21.155C52.57 20.905 52.555 20.66 52.555 20.42C52.555 19.88 52.645 19.405 52.825 18.995C53.005 18.585 53.255 18.245 53.575 17.975C53.895 17.705 54.275 17.51 54.715 17.39C55.155 17.27 55.635 17.23 56.155 17.27ZM63.415 22.97C63.405 23.08 63.39 23.195 63.37 23.315C63.35 23.425 63.31 23.535 63.25 23.645C63.18 23.775 63.095 23.87 62.995 23.93C62.855 24.04 62.69 24.095 62.5 24.095C62.35 24.095 62.21 24.055 62.08 23.975C61.94 23.895 61.83 23.77 61.75 23.6C61.67 23.43 61.63 23.275 61.63 23.135V21.515C61.46 21.515 61.285 21.51 61.105 21.5C60.935 21.48 60.795 21.46 60.685 21.44C60.395 21.4 60.155 21.315 59.965 21.185C59.785 21.045 59.72 20.81 59.77 20.48C59.81 20.26 59.875 20.095 59.965 19.985C60.065 19.865 60.225 19.8 60.445 19.79C60.515 19.79 60.58 19.79 60.64 19.79C60.71 19.78 60.785 19.775 60.865 19.775C60.985 19.775 61.11 19.775 61.24 19.775C61.37 19.765 61.5 19.76 61.63 19.76V18.635C61.63 18.615 61.625 18.565 61.615 18.485C61.615 18.405 61.615 18.32 61.615 18.23C61.615 18.13 61.62 18.035 61.63 17.945C61.65 17.845 61.675 17.765 61.705 17.705C61.755 17.615 61.83 17.54 61.93 17.48C62.03 17.41 62.15 17.365 62.29 17.345C62.46 17.325 62.615 17.335 62.755 17.375C62.905 17.415 63.02 17.48 63.1 17.57C63.24 17.72 63.33 17.875 63.37 18.035C63.4 18.135 63.415 18.28 63.415 18.47C63.425 18.66 63.425 18.81 63.415 18.92V19.73C63.415 20.03 63.42 20.315 63.43 20.585C63.44 20.845 63.445 21.105 63.445 21.365C63.455 21.615 63.455 21.87 63.445 22.13C63.445 22.39 63.435 22.67 63.415 22.97ZM57.46 20.78C57.51 20.42 57.45 20.085 57.28 19.775C57.12 19.465 56.88 19.255 56.56 19.145C56.35 19.075 56.12 19.04 55.87 19.04C55.62 19.04 55.38 19.085 55.15 19.175C54.93 19.255 54.735 19.385 54.565 19.565C54.405 19.735 54.305 19.96 54.265 20.24C54.235 20.43 54.235 20.625 54.265 20.825C54.295 21.015 54.36 21.19 54.46 21.35C54.57 21.5 54.72 21.63 54.91 21.74C55.1 21.85 55.34 21.92 55.63 21.95C55.83 21.97 56.025 21.97 56.215 21.95C56.415 21.93 56.595 21.88 56.755 21.8C56.925 21.72 57.07 21.61 57.19 21.47C57.31 21.32 57.395 21.13 57.445 20.9L57.46 20.78ZM77.9212 28.25C78.0812 28.27 78.2212 28.31 78.3412 28.37C78.4612 28.43 78.5462 28.54 78.5962 28.7C78.7162 29.06 78.5862 29.315 78.2062 29.465C78.0862 29.515 77.9662 29.545 77.8462 29.555C77.7262 29.565 77.6112 29.57 77.5012 29.57H70.5262C70.3262 29.57 70.1162 29.565 69.8962 29.555C69.6862 29.555 69.4712 29.55 69.2512 29.54C69.0412 29.53 68.8662 29.455 68.7262 29.315C68.5862 29.175 68.5062 28.99 68.4862 28.76L68.4412 27.71C68.4312 27.6 68.4312 27.47 68.4412 27.32C68.4512 27.17 68.5012 27.045 68.5912 26.945C68.7312 26.795 68.9162 26.7 69.1462 26.66C69.3862 26.62 69.6162 26.6 69.8362 26.6C69.9762 26.6 70.2062 26.6 70.5262 26.6C70.8562 26.6 71.3012 26.605 71.8612 26.615C72.4212 26.615 73.1112 26.615 73.9312 26.615C74.7612 26.615 75.7462 26.615 76.8862 26.615V26.075H69.5062C69.4062 26.075 69.3162 26.075 69.2362 26.075C69.1562 26.075 69.0762 26.065 68.9962 26.045C68.9062 26.025 68.8262 26.005 68.7562 25.985C68.6862 25.965 68.6262 25.915 68.5762 25.835C68.4362 25.625 68.4012 25.41 68.4712 25.19C68.5012 25.11 68.5462 25.05 68.6062 25.01C68.6662 24.96 68.7362 24.92 68.8162 24.89C68.8962 24.86 68.9712 24.84 69.0412 24.83C69.1212 24.82 69.1912 24.81 69.2512 24.8C69.4012 24.77 69.5562 24.755 69.7162 24.755C69.8562 24.755 70.0062 24.755 70.1662 24.755C70.3362 24.755 70.5362 24.76 70.7662 24.77C70.9962 24.77 71.2612 24.77 71.5612 24.77C71.8712 24.77 72.2312 24.77 72.6412 24.77C72.6312 24.59 72.6312 24.44 72.6412 24.32C72.6612 24.2 72.6712 24.045 72.6712 23.855C72.4412 23.855 72.1412 23.855 71.7712 23.855C71.4012 23.845 71.0212 23.84 70.6312 23.84C70.2412 23.83 69.8662 23.82 69.5062 23.81C69.1462 23.8 68.8662 23.785 68.6662 23.765C68.5062 23.745 68.3762 23.725 68.2762 23.705C68.1862 23.675 68.0762 23.6 67.9462 23.48C67.8762 23.42 67.8262 23.34 67.7962 23.24C67.7662 23.14 67.7512 23.035 67.7512 22.925C67.7512 22.715 67.8162 22.545 67.9462 22.415C68.0162 22.335 68.1112 22.275 68.2312 22.235C68.3512 22.195 68.4662 22.165 68.5762 22.145C68.6862 22.125 68.7812 22.115 68.8612 22.115C68.9512 22.115 69.0012 22.115 69.0112 22.115H76.4062C76.3662 21.985 76.3412 21.845 76.3312 21.695C76.3312 21.545 76.3262 21.415 76.3162 21.305C76.3062 21.235 76.3012 21.14 76.3012 21.02C76.3112 20.9 76.3162 20.775 76.3162 20.645C76.3162 20.505 76.3112 20.38 76.3012 20.27C76.2912 20.15 76.2662 20.065 76.2262 20.015C76.1562 19.925 76.0612 19.865 75.9412 19.835C75.8312 19.795 75.7112 19.775 75.5812 19.775C75.4512 19.765 75.3212 19.765 75.1912 19.775C75.0612 19.775 74.9512 19.775 74.8612 19.775H70.7512C70.6912 19.775 70.6212 19.78 70.5412 19.79C70.4612 19.79 70.3812 19.795 70.3012 19.805C70.1112 19.825 69.8812 19.825 69.6112 19.805C69.4412 19.795 69.2762 19.77 69.1162 19.73C68.9562 19.68 68.8162 19.615 68.6962 19.535C68.5762 19.455 68.4912 19.35 68.4412 19.22C68.3912 19.09 68.3912 18.93 68.4412 18.74C68.5212 18.42 68.7162 18.18 69.0262 18.02C69.2562 17.89 69.4962 17.815 69.7462 17.795C70.0062 17.775 70.2662 17.765 70.5262 17.765C70.6062 17.755 70.6862 17.75 70.7662 17.75C70.8562 17.75 70.9412 17.75 71.0212 17.75C71.1012 17.74 71.1812 17.735 71.2612 17.735C71.3512 17.735 71.4412 17.735 71.5312 17.735C71.5812 17.735 71.7012 17.735 71.8912 17.735C72.0912 17.735 72.3212 17.735 72.5812 17.735C72.8512 17.735 73.1362 17.74 73.4362 17.75C73.7362 17.75 74.0162 17.75 74.2762 17.75C74.5462 17.75 74.7762 17.755 74.9662 17.765C75.1562 17.765 75.2762 17.765 75.3262 17.765C75.4862 17.775 75.6412 17.785 75.7912 17.795C75.9512 17.795 76.1112 17.795 76.2712 17.795C76.5112 17.795 76.7512 17.81 76.9912 17.84C77.2312 17.86 77.4662 17.905 77.6962 17.975C77.9162 18.045 78.0412 18.16 78.0712 18.32C78.1112 18.47 78.1462 18.645 78.1762 18.845C78.2462 19.295 78.2712 19.755 78.2512 20.225C78.2412 20.685 78.2112 21.14 78.1612 21.59C78.1412 21.69 78.1262 21.785 78.1162 21.875C78.1062 21.965 78.0862 22.05 78.0562 22.13H78.4762C78.6162 22.14 78.7512 22.16 78.8812 22.19C79.0212 22.22 79.1462 22.285 79.2562 22.385C79.3662 22.465 79.4262 22.555 79.4362 22.655C79.4562 22.755 79.4662 22.865 79.4662 22.985C79.4662 23.135 79.4212 23.27 79.3312 23.39C79.2512 23.51 79.1362 23.595 78.9862 23.645C78.7862 23.725 78.5762 23.775 78.3562 23.795C78.1462 23.805 77.9362 23.815 77.7262 23.825C77.2362 23.845 76.7412 23.855 76.2412 23.855C75.7512 23.855 75.2512 23.855 74.7412 23.855C74.7512 24.035 74.7512 24.19 74.7412 24.32C74.7312 24.45 74.7262 24.6 74.7262 24.77H77.0362C77.5462 24.77 77.9362 24.85 78.2062 25.01C78.4762 25.16 78.6112 25.41 78.6112 25.76V26.825C78.6112 26.965 78.5762 27.105 78.5062 27.245C78.4462 27.375 78.3362 27.485 78.1762 27.575C78.0462 27.655 77.9162 27.7 77.7862 27.71C77.6562 27.71 77.5262 27.71 77.3962 27.71H70.2862V28.25H77.9212ZM93.0155 28.43C93.1655 28.45 93.3005 28.495 93.4205 28.565C93.5405 28.625 93.6255 28.74 93.6755 28.91C93.7955 29.28 93.6655 29.55 93.2855 29.72C93.1755 29.77 93.0605 29.8 92.9405 29.81C92.8205 29.82 92.7055 29.825 92.5955 29.825H85.6955C85.4955 29.825 85.2905 29.82 85.0805 29.81C84.8705 29.81 84.6555 29.805 84.4355 29.795C84.2355 29.785 84.0655 29.705 83.9255 29.555C83.7855 29.405 83.7055 29.21 83.6855 28.97L83.6405 27.86C83.6305 27.75 83.6305 27.615 83.6405 27.455C83.6505 27.295 83.7005 27.165 83.7905 27.065C83.9305 26.905 84.1155 26.805 84.3455 26.765C84.5755 26.725 84.8005 26.705 85.0205 26.705C85.1605 26.705 85.3905 26.705 85.7105 26.705C86.0305 26.705 86.4655 26.71 87.0155 26.72C87.5655 26.72 88.2455 26.72 89.0555 26.72C89.8755 26.72 90.8505 26.72 91.9805 26.72V26.15H84.6905C84.5905 26.15 84.5005 26.15 84.4205 26.15C84.3405 26.15 84.2655 26.14 84.1955 26.12C84.1055 26.09 84.0255 26.065 83.9555 26.045C83.8855 26.025 83.8255 25.975 83.7755 25.895C83.6355 25.665 83.6005 25.44 83.6705 25.22C83.7005 25.13 83.7455 25.06 83.8055 25.01C83.8655 24.96 83.9305 24.92 84.0005 24.89C84.0805 24.86 84.1605 24.84 84.2405 24.83C84.3205 24.82 84.3855 24.81 84.4355 24.8C84.5855 24.77 84.7405 24.755 84.9005 24.755C85.1205 24.755 85.3705 24.755 85.6505 24.755C85.9405 24.755 86.3405 24.76 86.8505 24.77C87.3705 24.77 88.0455 24.77 88.8755 24.77C89.7155 24.77 90.8005 24.77 92.1305 24.77C92.6405 24.77 93.0255 24.855 93.2855 25.025C93.5555 25.185 93.6905 25.45 93.6905 25.82V26.93C93.6905 27.07 93.6555 27.215 93.5855 27.365C93.5255 27.505 93.4155 27.625 93.2555 27.725C93.1355 27.805 93.0105 27.85 92.8805 27.86C92.7505 27.86 92.6205 27.86 92.4905 27.86H85.4705V28.43H93.0155ZM83.7005 19.43C83.7005 19.02 83.8155 18.675 84.0455 18.395C84.2855 18.105 84.6205 17.875 85.0505 17.705C85.4905 17.525 86.0255 17.395 86.6555 17.315C87.2855 17.235 88.0005 17.195 88.8005 17.195C89.5605 17.195 90.2555 17.23 90.8855 17.3C91.5155 17.36 92.0555 17.475 92.5055 17.645C92.9555 17.805 93.3005 18.03 93.5405 18.32C93.7905 18.61 93.9155 18.98 93.9155 19.43C93.9155 19.88 93.8105 20.25 93.6005 20.54C93.3905 20.83 93.0705 21.06 92.6405 21.23C92.2105 21.39 91.6755 21.505 91.0355 21.575C90.3955 21.635 89.6505 21.665 88.8005 21.665C88.0905 21.665 87.4255 21.635 86.8055 21.575C86.1955 21.505 85.6555 21.39 85.1855 21.23C84.7255 21.06 84.3605 20.83 84.0905 20.54C83.8305 20.25 83.7005 19.88 83.7005 19.43ZM84.2855 22.325C84.3655 22.315 84.4555 22.31 84.5555 22.31C84.6555 22.3 84.7605 22.295 84.8705 22.295H85.2455H88.5455C89.0755 22.285 89.5955 22.28 90.1055 22.28C90.5355 22.28 90.9855 22.28 91.4555 22.28C91.9255 22.28 92.3305 22.285 92.6705 22.295H92.7455C92.9455 22.305 93.1455 22.31 93.3455 22.31C93.5455 22.31 93.7455 22.35 93.9455 22.43C94.0855 22.48 94.1955 22.565 94.2755 22.685C94.3655 22.805 94.4105 22.94 94.4105 23.09C94.4105 23.34 94.3105 23.55 94.1105 23.72C93.9505 23.86 93.7555 23.94 93.5255 23.96C93.2955 23.98 93.0805 23.98 92.8805 23.96H84.2705C84.2605 23.96 84.2155 23.96 84.1355 23.96C84.0555 23.96 83.9605 23.95 83.8505 23.93C83.7505 23.91 83.6405 23.88 83.5205 23.84C83.4105 23.8 83.3205 23.74 83.2505 23.66C83.1305 23.54 83.0705 23.37 83.0705 23.15C83.0705 22.94 83.1355 22.77 83.2655 22.64C83.3955 22.51 83.5305 22.435 83.6705 22.415C83.8105 22.385 83.9555 22.36 84.1055 22.34C84.1355 22.34 84.1655 22.34 84.1955 22.34C84.2255 22.33 84.2555 22.325 84.2855 22.325ZM91.8605 19.43C91.8605 19.27 91.7655 19.14 91.5755 19.04C91.3955 18.94 91.1605 18.865 90.8705 18.815C90.5805 18.755 90.2505 18.715 89.8805 18.695C89.5205 18.675 89.1605 18.665 88.8005 18.665C88.4405 18.665 88.0855 18.675 87.7355 18.695C87.3855 18.715 87.0705 18.755 86.7905 18.815C86.5105 18.865 86.2805 18.94 86.1005 19.04C85.9305 19.14 85.8455 19.27 85.8455 19.43C85.8455 19.57 85.9305 19.685 86.1005 19.775C86.2705 19.865 86.4955 19.935 86.7755 19.985C87.0555 20.035 87.3655 20.07 87.7055 20.09C88.0555 20.11 88.4105 20.12 88.7705 20.12C89.1305 20.12 89.4905 20.12 89.8505 20.12C90.2205 20.11 90.5555 20.085 90.8555 20.045C91.1555 20.005 91.3955 19.94 91.5755 19.85C91.7655 19.75 91.8605 19.61 91.8605 19.43ZM108.299 26.78C108.329 26.79 108.359 26.795 108.389 26.795C108.419 26.785 108.449 26.78 108.479 26.78C108.649 26.8 108.804 26.835 108.944 26.885C109.094 26.925 109.239 27.005 109.379 27.125C109.519 27.265 109.589 27.44 109.589 27.65C109.589 27.76 109.569 27.88 109.529 28.01C109.499 28.13 109.454 28.225 109.394 28.295C109.314 28.375 109.214 28.435 109.094 28.475C108.974 28.515 108.859 28.545 108.749 28.565C108.639 28.575 108.539 28.58 108.449 28.58C108.369 28.58 108.324 28.58 108.314 28.58H99.914C99.864 28.58 99.814 28.585 99.764 28.595C99.714 28.595 99.664 28.595 99.614 28.595C99.404 28.605 99.179 28.605 98.939 28.595C98.699 28.575 98.494 28.495 98.324 28.355C98.114 28.165 98.009 27.95 98.009 27.71C98.009 27.56 98.054 27.405 98.144 27.245C98.234 27.085 98.354 26.975 98.504 26.915C98.704 26.835 98.909 26.795 99.119 26.795C99.339 26.795 99.559 26.79 99.779 26.78H99.854C100.724 26.76 101.619 26.76 102.539 26.78L102.524 24.71C102.144 24.72 101.799 24.725 101.489 24.725C101.189 24.725 100.949 24.715 100.769 24.695C100.559 24.685 100.329 24.67 100.079 24.65C99.829 24.62 99.619 24.54 99.449 24.41C99.339 24.32 99.249 24.195 99.179 24.035C99.119 23.875 99.074 23.715 99.044 23.555C99.014 23.395 98.994 23.255 98.984 23.135C98.984 23.005 98.984 22.935 98.984 22.925V19.7C98.984 19.5 98.974 19.3 98.954 19.1C98.944 18.9 98.959 18.7 98.999 18.5C99.029 18.38 99.079 18.285 99.149 18.215C99.229 18.135 99.319 18.075 99.419 18.035C99.529 17.985 99.644 17.95 99.764 17.93C99.894 17.91 100.014 17.895 100.124 17.885C100.214 17.885 100.309 17.89 100.409 17.9C100.509 17.91 100.604 17.935 100.694 17.975C100.784 18.005 100.859 18.055 100.919 18.125C100.989 18.185 101.034 18.265 101.054 18.365C101.064 18.415 101.064 18.51 101.054 18.65C101.054 18.79 101.054 18.945 101.054 19.115C101.054 19.275 101.054 19.43 101.054 19.58C101.064 19.72 101.079 19.81 101.099 19.85C101.119 19.9 101.169 19.935 101.249 19.955C101.339 19.965 101.409 19.975 101.459 19.985C101.689 20.005 101.869 20.01 101.999 20C102.129 19.98 102.309 19.97 102.539 19.97L105.974 19.985C106.084 19.995 106.174 19.995 106.244 19.985C106.324 19.965 106.379 19.9 106.409 19.79C106.409 19.74 106.409 19.655 106.409 19.535C106.419 19.405 106.424 19.275 106.424 19.145C106.424 19.005 106.424 18.88 106.424 18.77C106.434 18.65 106.439 18.57 106.439 18.53C106.449 18.35 106.484 18.21 106.544 18.11C106.614 18 106.744 17.925 106.934 17.885C107.134 17.835 107.349 17.825 107.579 17.855C107.819 17.875 107.994 17.94 108.104 18.05C108.264 18.22 108.354 18.415 108.374 18.635C108.394 18.855 108.404 19.16 108.404 19.55C108.394 19.78 108.389 20.08 108.389 20.45C108.399 20.81 108.404 21.185 108.404 21.575C108.404 21.965 108.399 22.34 108.389 22.7C108.389 23.06 108.379 23.355 108.359 23.585C108.309 24.195 107.994 24.545 107.414 24.635C107.264 24.655 107.094 24.665 106.904 24.665C106.724 24.665 106.559 24.665 106.409 24.665C106.089 24.675 105.774 24.68 105.464 24.68C105.154 24.68 104.849 24.68 104.549 24.68L104.579 26.78C104.829 26.78 105.064 26.78 105.284 26.78C105.514 26.77 105.734 26.765 105.944 26.765C106.154 26.765 106.369 26.765 106.589 26.765C106.809 26.765 107.039 26.77 107.279 26.78C107.459 26.79 107.634 26.79 107.804 26.78C107.974 26.76 108.139 26.76 108.299 26.78ZM101.099 22.775C101.139 22.925 101.244 23.015 101.414 23.045C101.594 23.065 101.769 23.08 101.939 23.09C101.959 23.09 102.054 23.09 102.224 23.09C102.394 23.08 102.599 23.075 102.839 23.075C103.079 23.075 103.334 23.075 103.604 23.075C103.884 23.065 104.144 23.06 104.384 23.06C104.634 23.06 104.844 23.065 105.014 23.075C105.184 23.075 105.284 23.075 105.314 23.075C105.394 23.085 105.474 23.09 105.554 23.09C105.644 23.08 105.729 23.08 105.809 23.09C105.859 23.09 105.914 23.095 105.974 23.105C106.044 23.115 106.109 23.115 106.169 23.105C106.229 23.095 106.279 23.07 106.319 23.03C106.359 22.99 106.379 22.93 106.379 22.85C106.379 22.81 106.379 22.75 106.379 22.67C106.379 22.58 106.379 22.485 106.379 22.385C106.379 22.275 106.374 22.17 106.364 22.07C106.364 21.96 106.354 21.87 106.334 21.8C106.304 21.68 106.254 21.615 106.184 21.605C106.124 21.585 106.044 21.58 105.944 21.59C105.894 21.59 105.814 21.595 105.704 21.605C105.604 21.605 105.529 21.6 105.479 21.59H102.059C101.969 21.59 101.869 21.59 101.759 21.59C101.649 21.58 101.544 21.585 101.444 21.605C101.354 21.615 101.274 21.65 101.204 21.71C101.134 21.76 101.094 21.845 101.084 21.965C101.084 21.995 101.084 22.05 101.084 22.13C101.084 22.21 101.084 22.295 101.084 22.385C101.084 22.475 101.084 22.56 101.084 22.64C101.094 22.71 101.099 22.755 101.099 22.775ZM122.182 19.28C122.182 19.15 122.182 19.01 122.182 18.86C122.192 18.7 122.207 18.545 122.227 18.395C122.257 18.235 122.292 18.09 122.332 17.96C122.382 17.82 122.452 17.705 122.542 17.615C122.672 17.485 122.832 17.42 123.022 17.42H123.052C123.302 17.43 123.497 17.505 123.637 17.645C123.777 17.775 123.882 17.935 123.952 18.125C124.032 18.315 124.082 18.515 124.102 18.725C124.122 18.925 124.132 19.105 124.132 19.265V28.16C124.132 28.17 124.132 28.22 124.132 28.31C124.132 28.39 124.122 28.49 124.102 28.61C124.082 28.73 124.052 28.85 124.012 28.97C123.972 29.09 123.907 29.19 123.817 29.27C123.747 29.34 123.647 29.395 123.517 29.435C123.387 29.475 123.267 29.495 123.157 29.495C122.917 29.495 122.727 29.415 122.587 29.255C122.457 29.115 122.372 28.98 122.332 28.85C122.302 28.71 122.277 28.555 122.257 28.385C122.257 28.295 122.252 28.165 122.242 27.995C122.242 27.815 122.242 27.625 122.242 27.425C122.242 27.215 122.242 27.01 122.242 26.81C122.242 26.6 122.242 26.425 122.242 26.285H121.312C121.082 26.285 120.902 26.25 120.772 26.18C120.652 26.11 120.567 26.02 120.517 25.91C120.487 25.85 120.457 25.79 120.427 25.73C120.407 25.66 120.397 25.59 120.397 25.52C120.397 25.45 120.397 25.39 120.397 25.34C120.397 25.29 120.407 25.23 120.427 25.16C120.447 25.08 120.472 24.995 120.502 24.905C120.532 24.815 120.577 24.745 120.637 24.695C120.767 24.595 120.907 24.53 121.057 24.5C121.217 24.47 121.402 24.455 121.612 24.455C121.832 24.445 122.027 24.43 122.197 24.41C122.197 24.34 122.197 24.235 122.197 24.095C122.197 23.945 122.197 23.78 122.197 23.6C122.197 23.42 122.192 23.24 122.182 23.06C122.182 22.87 122.182 22.69 122.182 22.52L121.282 22.49C121.092 22.48 120.922 22.455 120.772 22.415C120.622 22.375 120.522 22.3 120.472 22.19C120.402 22.05 120.367 21.915 120.367 21.785C120.367 21.715 120.367 21.655 120.367 21.605C120.367 21.555 120.377 21.495 120.397 21.425C120.417 21.345 120.442 21.265 120.472 21.185C120.502 21.105 120.547 21.04 120.607 20.99C120.737 20.89 120.877 20.825 121.027 20.795C121.137 20.775 121.287 20.765 121.477 20.765C121.677 20.755 121.907 20.74 122.167 20.72C122.167 20.39 122.167 20.095 122.167 19.835C122.167 19.565 122.172 19.38 122.182 19.28ZM116.722 17.42C116.852 17.42 116.977 17.425 117.097 17.435C117.217 17.445 117.337 17.46 117.457 17.48C117.837 17.54 118.172 17.715 118.462 18.005C118.702 18.265 118.897 18.565 119.047 18.905C119.207 19.235 119.332 19.585 119.422 19.955C119.512 20.325 119.577 20.705 119.617 21.095C119.657 21.475 119.687 21.845 119.707 22.205C119.727 22.665 119.732 23.125 119.722 23.585C119.712 24.045 119.682 24.5 119.632 24.95C119.582 25.42 119.507 25.895 119.407 26.375C119.317 26.845 119.147 27.27 118.897 27.65C118.687 27.97 118.427 28.235 118.117 28.445C117.807 28.645 117.482 28.78 117.142 28.85C116.832 28.91 116.517 28.92 116.197 28.88C115.877 28.84 115.572 28.735 115.282 28.565C115.012 28.405 114.782 28.205 114.592 27.965C114.412 27.725 114.252 27.445 114.112 27.125C113.912 26.645 113.797 26.15 113.767 25.64C113.727 25.22 113.697 24.8 113.677 24.38C113.667 23.96 113.662 23.54 113.662 23.12C113.662 22.83 113.662 22.55 113.662 22.28C113.672 22 113.692 21.72 113.722 21.44C113.742 21.21 113.767 20.985 113.797 20.765C113.827 20.535 113.862 20.31 113.902 20.09C113.942 19.91 113.977 19.74 114.007 19.58C114.037 19.42 114.092 19.255 114.172 19.085C114.252 18.915 114.337 18.755 114.427 18.605C114.527 18.455 114.642 18.32 114.772 18.2C114.992 17.98 115.237 17.81 115.507 17.69C115.777 17.57 116.057 17.49 116.347 17.45C116.407 17.44 116.467 17.435 116.527 17.435C116.597 17.435 116.662 17.43 116.722 17.42ZM116.677 26.855C116.867 26.855 117.052 26.795 117.232 26.675C117.402 26.555 117.522 26.395 117.592 26.195C117.662 25.995 117.722 25.775 117.772 25.535C117.852 25.075 117.897 24.585 117.907 24.065C117.917 23.545 117.912 23.045 117.892 22.565C117.892 22.375 117.887 22.175 117.877 21.965C117.867 21.745 117.847 21.53 117.817 21.32C117.797 21.11 117.762 20.91 117.712 20.72C117.662 20.52 117.592 20.345 117.502 20.195C117.402 20.025 117.282 19.895 117.142 19.805C117.002 19.715 116.852 19.68 116.692 19.7C116.522 19.72 116.367 19.78 116.227 19.88C116.087 19.98 115.972 20.13 115.882 20.33L115.747 20.645C115.687 20.835 115.642 21.035 115.612 21.245C115.582 21.445 115.557 21.645 115.537 21.845C115.517 22.045 115.502 22.25 115.492 22.46C115.482 22.67 115.477 22.875 115.477 23.075C115.487 23.275 115.482 23.47 115.462 23.66C115.452 23.85 115.457 24.045 115.477 24.245C115.497 24.505 115.522 24.785 115.552 25.085C115.592 25.385 115.652 25.67 115.732 25.94C115.812 26.2 115.927 26.42 116.077 26.6C116.227 26.77 116.427 26.855 116.677 26.855ZM137.37 22.07C137.56 22.17 137.745 22.29 137.925 22.43C138.105 22.56 138.275 22.7 138.435 22.85C138.515 22.93 138.57 23.03 138.6 23.15C138.63 23.27 138.63 23.39 138.6 23.51C138.58 23.63 138.53 23.74 138.45 23.84C138.38 23.93 138.285 23.99 138.165 24.02C137.845 24.1 137.51 24.095 137.16 24.005C136.82 23.915 136.505 23.8 136.215 23.66C135.945 23.52 135.695 23.39 135.465 23.27C135.235 23.14 135.005 23.005 134.775 22.865C134.705 22.815 134.61 22.76 134.49 22.7C134.38 22.63 134.27 22.56 134.16 22.49C134.03 22.41 133.89 22.33 133.74 22.25C133.57 22.34 133.405 22.425 133.245 22.505C133.105 22.575 132.965 22.645 132.825 22.715C132.695 22.775 132.59 22.83 132.51 22.88C132.25 23.03 132.01 23.16 131.79 23.27C131.57 23.38 131.33 23.505 131.07 23.645C130.87 23.745 130.665 23.855 130.455 23.975C130.255 24.085 130.04 24.13 129.81 24.11C129.63 24.09 129.455 24.035 129.285 23.945C129.115 23.855 129.01 23.7 128.97 23.48C128.95 23.36 128.96 23.23 129 23.09C129.04 22.92 129.105 22.78 129.195 22.67C129.295 22.56 129.415 22.46 129.555 22.37L130.59 21.785C130.76 21.685 130.91 21.605 131.04 21.545C131.17 21.475 131.325 21.39 131.505 21.29C131.675 21.19 131.87 21.08 132.09 20.96C132.32 20.83 132.535 20.725 132.735 20.645V19.43H131.145C130.985 19.43 130.845 19.435 130.725 19.445C130.615 19.445 130.485 19.435 130.335 19.415C130.225 19.395 130.105 19.385 129.975 19.385C129.845 19.385 129.725 19.355 129.615 19.295C129.505 19.235 129.415 19.13 129.345 18.98C129.285 18.87 129.25 18.74 129.24 18.59C129.23 18.44 129.25 18.305 129.3 18.185C129.38 18.005 129.51 17.87 129.69 17.78C129.87 17.69 130.055 17.645 130.245 17.645H130.59C130.75 17.655 130.865 17.66 130.935 17.66C131.015 17.65 131.135 17.645 131.295 17.645H136.485C136.645 17.645 136.83 17.64 137.04 17.63C137.25 17.62 137.45 17.635 137.64 17.675C137.84 17.715 138.015 17.79 138.165 17.9C138.325 18.01 138.43 18.185 138.48 18.425C138.54 18.705 138.495 18.92 138.345 19.07C138.205 19.21 138.02 19.315 137.79 19.385C137.57 19.445 137.335 19.48 137.085 19.49C136.835 19.49 136.63 19.485 136.47 19.475C136.31 19.465 136.14 19.46 135.96 19.46C135.79 19.45 135.625 19.445 135.465 19.445C135.285 19.445 135.105 19.45 134.925 19.46V20.675C135.065 20.755 135.195 20.825 135.315 20.885C135.375 20.915 135.43 20.95 135.48 20.99C135.54 21.02 135.6 21.055 135.66 21.095C135.76 21.145 135.855 21.195 135.945 21.245C136.045 21.295 136.145 21.35 136.245 21.41C136.435 21.52 136.62 21.63 136.8 21.74C136.99 21.85 137.18 21.96 137.37 22.07ZM129.645 26.795C129.415 26.785 129.195 26.755 128.985 26.705C128.785 26.645 128.62 26.515 128.49 26.315C128.38 26.145 128.325 25.965 128.325 25.775C128.335 25.575 128.41 25.405 128.55 25.265C128.63 25.185 128.73 25.125 128.85 25.085C128.97 25.045 129.085 25.015 129.195 24.995C129.305 24.975 129.4 24.965 129.48 24.965C129.57 24.965 129.62 24.965 129.63 24.965H137.805C137.965 24.955 138.135 24.955 138.315 24.965C138.505 24.975 138.68 25.01 138.84 25.07C139 25.12 139.135 25.21 139.245 25.34C139.355 25.46 139.41 25.63 139.41 25.85C139.41 26.1 139.325 26.29 139.155 26.42C138.985 26.54 138.78 26.63 138.54 26.69C138.31 26.74 138.07 26.77 137.82 26.78C137.57 26.78 137.365 26.78 137.205 26.78H136.62C136.42 26.79 136.225 26.795 136.035 26.795C135.845 26.785 135.65 26.78 135.45 26.78H134.88C134.89 27.06 134.9 27.355 134.91 27.665C134.92 27.975 134.905 28.25 134.865 28.49C134.845 28.68 134.795 28.86 134.715 29.03C134.645 29.21 134.525 29.355 134.355 29.465C134.205 29.565 134.03 29.615 133.83 29.615C133.63 29.625 133.45 29.585 133.29 29.495C133.16 29.415 133.06 29.3 132.99 29.15C132.93 29 132.89 28.855 132.87 28.715C132.85 28.605 132.84 28.485 132.84 28.355C132.85 28.225 132.855 28.105 132.855 27.995C132.845 27.815 132.84 27.62 132.84 27.41C132.84 27.19 132.84 26.975 132.84 26.765H132.465C132.185 26.765 131.93 26.77 131.7 26.78C131.48 26.78 131.265 26.785 131.055 26.795C130.845 26.795 130.625 26.795 130.395 26.795C130.175 26.795 129.925 26.795 129.645 26.795ZM151.85 27.545C151.85 27.795 151.84 27.995 151.82 28.145C151.81 28.295 151.765 28.485 151.685 28.715C151.635 28.865 151.55 28.99 151.43 29.09C151.31 29.19 151.14 29.24 150.92 29.24C150.86 29.24 150.78 29.23 150.68 29.21C150.58 29.2 150.505 29.175 150.455 29.135C150.355 29.075 150.275 28.98 150.215 28.85C150.165 28.71 150.125 28.565 150.095 28.415C150.065 28.265 150.045 28.12 150.035 27.98C150.035 27.84 150.035 27.73 150.035 27.65V23.645L149.06 23.6C148.97 23.6 148.875 23.59 148.775 23.57C148.685 23.54 148.595 23.495 148.505 23.435C148.425 23.375 148.355 23.295 148.295 23.195C148.235 23.095 148.2 22.97 148.19 22.82C148.17 22.64 148.18 22.45 148.22 22.25C148.27 22.04 148.41 21.88 148.64 21.77C148.73 21.72 148.84 21.69 148.97 21.68C149.11 21.67 149.23 21.67 149.33 21.68H150.035V18.95C150.035 18.82 150.035 18.69 150.035 18.56C150.035 18.42 150.05 18.285 150.08 18.155C150.1 18.105 150.115 18.06 150.125 18.02C150.145 17.98 150.165 17.935 150.185 17.885C150.295 17.705 150.45 17.58 150.65 17.51C150.7 17.49 150.75 17.48 150.8 17.48C150.86 17.47 150.915 17.465 150.965 17.465C151.295 17.465 151.545 17.615 151.715 17.915C151.755 17.975 151.78 18.06 151.79 18.17C151.81 18.28 151.825 18.395 151.835 18.515C151.845 18.625 151.85 18.725 151.85 18.815C151.85 18.895 151.85 18.945 151.85 18.965V25.985V27.545ZM154.235 28.82C154.175 28.95 154.08 29.06 153.95 29.15C153.75 29.28 153.53 29.315 153.29 29.255C153.14 29.225 153.02 29.16 152.93 29.06C152.84 28.97 152.77 28.865 152.72 28.745C152.68 28.625 152.655 28.495 152.645 28.355C152.635 28.215 152.63 28.08 152.63 27.95V19.115C152.63 19.005 152.63 18.88 152.63 18.74C152.63 18.59 152.64 18.45 152.66 18.32C152.68 18.18 152.705 18.05 152.735 17.93C152.775 17.81 152.83 17.715 152.9 17.645C153.01 17.545 153.115 17.485 153.215 17.465C153.315 17.435 153.435 17.42 153.575 17.42C153.745 17.42 153.885 17.47 153.995 17.57C154.105 17.66 154.19 17.785 154.25 17.945C154.34 18.155 154.39 18.37 154.4 18.59C154.41 18.81 154.42 19.035 154.43 19.265V19.34C154.45 20.1 154.455 20.83 154.445 21.53C154.435 22.23 154.43 22.935 154.43 23.645V27.395C154.43 27.655 154.42 27.905 154.4 28.145C154.39 28.385 154.335 28.61 154.235 28.82ZM146.435 25.94C146.425 25.95 146.375 26.015 146.285 26.135C146.205 26.245 146.115 26.37 146.015 26.51C145.925 26.64 145.835 26.76 145.745 26.87C145.665 26.98 145.62 27.04 145.61 27.05C145.53 27.16 145.45 27.27 145.37 27.38C145.3 27.48 145.225 27.58 145.145 27.68C145.125 27.7 145.105 27.725 145.085 27.755C145.075 27.785 145.06 27.81 145.04 27.83C144.9 28 144.755 28.165 144.605 28.325C144.455 28.485 144.28 28.605 144.08 28.685C144 28.725 143.91 28.745 143.81 28.745C143.71 28.745 143.625 28.72 143.555 28.67C143.495 28.62 143.425 28.555 143.345 28.475C143.185 28.295 143.105 28.085 143.105 27.845C143.115 27.665 143.155 27.495 143.225 27.335C143.305 27.175 143.385 27.025 143.465 26.885C143.485 26.865 143.54 26.78 143.63 26.63C143.73 26.48 143.845 26.295 143.975 26.075C144.105 25.855 144.24 25.62 144.38 25.37C144.53 25.11 144.67 24.87 144.8 24.65C144.94 24.42 145.06 24.22 145.16 24.05C145.26 23.88 145.33 23.775 145.37 23.735C145.43 23.625 145.475 23.52 145.505 23.42C145.545 23.32 145.57 23.215 145.58 23.105C145.6 22.945 145.61 22.79 145.61 22.64C145.61 22.48 145.61 22.31 145.61 22.13V19.475C145.61 19.375 145.61 19.28 145.61 19.19C145.61 19.1 145.615 19.005 145.625 18.905C145.625 18.795 145.635 18.685 145.655 18.575C145.675 18.465 145.695 18.365 145.715 18.275C145.735 18.215 145.76 18.15 145.79 18.08C145.83 18.01 145.865 17.945 145.895 17.885C145.945 17.805 146.01 17.745 146.09 17.705C146.18 17.665 146.275 17.635 146.375 17.615L146.405 17.6C146.485 17.58 146.55 17.575 146.6 17.585C146.65 17.585 146.715 17.6 146.795 17.63C146.875 17.66 146.945 17.705 147.005 17.765C147.045 17.805 147.08 17.86 147.11 17.93C147.14 18 147.17 18.075 147.2 18.155C147.24 18.255 147.27 18.37 147.29 18.5C147.32 18.62 147.34 18.75 147.35 18.89C147.39 19.31 147.415 19.785 147.425 20.315C147.435 20.835 147.44 21.305 147.44 21.725C147.45 21.985 147.455 22.245 147.455 22.505C147.455 22.755 147.465 23.005 147.485 23.255C147.495 23.475 147.545 23.68 147.635 23.87C147.735 24.06 147.835 24.25 147.935 24.44C148.035 24.66 148.14 24.885 148.25 25.115C148.36 25.345 148.47 25.565 148.58 25.775C148.59 25.805 148.625 25.875 148.685 25.985C148.745 26.095 148.805 26.215 148.865 26.345C148.935 26.465 148.995 26.58 149.045 26.69C149.105 26.79 149.14 26.855 149.15 26.885L149.18 27.005L149.225 27.095C149.285 27.205 149.33 27.32 149.36 27.44C149.39 27.55 149.41 27.67 149.42 27.8C149.43 27.93 149.4 28.065 149.33 28.205C149.19 28.515 148.99 28.68 148.73 28.7H148.715C148.555 28.7 148.415 28.64 148.295 28.52C148.175 28.4 148.045 28.255 147.905 28.085C147.765 27.925 147.63 27.74 147.5 27.53C147.37 27.32 147.255 27.145 147.155 27.005C146.925 26.625 146.75 26.36 146.63 26.21C146.51 26.05 146.445 25.96 146.435 25.94ZM168.756 26.795C168.786 26.805 168.816 26.81 168.846 26.81C168.876 26.8 168.906 26.795 168.936 26.795C169.106 26.815 169.261 26.85 169.401 26.9C169.551 26.94 169.696 27.025 169.836 27.155C169.976 27.275 170.046 27.445 170.046 27.665C170.046 27.775 170.026 27.895 169.986 28.025C169.956 28.145 169.911 28.24 169.851 28.31C169.771 28.39 169.671 28.45 169.551 28.49C169.441 28.53 169.326 28.56 169.206 28.58C169.096 28.59 168.996 28.595 168.906 28.595C168.826 28.595 168.781 28.595 168.771 28.595H160.536C160.486 28.595 160.411 28.6 160.311 28.61C160.211 28.61 160.136 28.61 160.086 28.61C159.866 28.62 159.636 28.62 159.396 28.61C159.156 28.59 158.951 28.51 158.781 28.37C158.571 28.18 158.466 27.965 158.466 27.725C158.466 27.575 158.511 27.42 158.601 27.26C158.691 27.1 158.811 26.99 158.961 26.93C159.161 26.85 159.366 26.81 159.576 26.81C159.796 26.81 160.016 26.805 160.236 26.795H160.311C160.461 26.795 160.636 26.795 160.836 26.795C161.046 26.785 161.231 26.78 161.391 26.78C161.381 26.74 161.376 26.69 161.376 26.63V26.57V25.175C161.376 25.085 161.391 24.995 161.421 24.905C161.441 24.825 161.476 24.745 161.526 24.665C161.576 24.575 161.646 24.49 161.736 24.41C161.366 24.32 161.016 24.18 160.686 23.99C160.366 23.8 160.086 23.53 159.846 23.18C159.616 22.87 159.461 22.54 159.381 22.19C159.311 21.84 159.276 21.475 159.276 21.095C159.276 20.315 159.481 19.665 159.891 19.145C160.311 18.615 160.881 18.235 161.601 18.005C162.081 17.845 162.566 17.745 163.056 17.705C163.556 17.655 164.056 17.65 164.556 17.69C164.966 17.72 165.376 17.76 165.786 17.81C166.196 17.86 166.591 17.97 166.971 18.14C167.141 18.22 167.306 18.315 167.466 18.425C167.626 18.535 167.776 18.665 167.916 18.815C168.266 19.195 168.506 19.605 168.636 20.045C168.766 20.485 168.811 20.955 168.771 21.455C168.711 22.235 168.481 22.86 168.081 23.33C167.681 23.79 167.181 24.125 166.581 24.335C166.691 24.395 166.781 24.475 166.851 24.575C166.921 24.675 166.961 24.795 166.971 24.935C166.981 25.095 166.986 25.345 166.986 25.685C166.996 26.015 167.001 26.385 167.001 26.795H167.601C167.781 26.805 167.976 26.805 168.186 26.795C168.406 26.775 168.596 26.775 168.756 26.795ZM166.806 21.68C166.836 21.55 166.846 21.425 166.836 21.305C166.816 20.785 166.651 20.4 166.341 20.15C166.041 19.89 165.651 19.73 165.171 19.67C164.891 19.64 164.546 19.61 164.136 19.58C163.726 19.54 163.321 19.55 162.921 19.61C162.531 19.67 162.186 19.795 161.886 19.985C161.586 20.165 161.406 20.455 161.346 20.855C161.316 21.095 161.316 21.325 161.346 21.545C161.386 21.765 161.471 21.96 161.601 22.13C161.731 22.3 161.911 22.445 162.141 22.565C162.371 22.685 162.666 22.76 163.026 22.79C163.376 22.83 163.731 22.865 164.091 22.895C164.461 22.925 164.821 22.905 165.171 22.835C165.341 22.805 165.511 22.765 165.681 22.715C165.861 22.655 166.026 22.58 166.176 22.49C166.326 22.4 166.456 22.29 166.566 22.16C166.676 22.02 166.756 21.86 166.806 21.68ZM164.781 24.605C164.521 24.605 164.246 24.61 163.956 24.62C163.676 24.62 163.391 24.61 163.101 24.59C163.171 24.71 163.211 24.825 163.221 24.935C163.231 25.095 163.236 25.345 163.236 25.685C163.246 26.015 163.251 26.385 163.251 26.795H164.841H165.141C165.131 26.755 165.126 26.7 165.126 26.63V26.57V25.175C165.126 25.115 165.136 25.05 165.156 24.98C165.176 24.93 165.196 24.87 165.216 24.8C165.236 24.73 165.271 24.66 165.321 24.59C165.231 24.6 165.141 24.605 165.051 24.605C164.961 24.605 164.871 24.605 164.781 24.605ZM174.614 17.945C174.694 17.815 174.804 17.72 174.944 17.66C175.084 17.6 175.219 17.57 175.349 17.57C175.459 17.57 175.564 17.575 175.664 17.585C175.774 17.585 175.879 17.595 175.979 17.615C176.189 17.675 176.339 17.81 176.429 18.02C176.519 18.22 176.574 18.455 176.594 18.725C176.624 18.985 176.629 19.245 176.609 19.505C176.599 19.765 176.594 19.975 176.594 20.135V24.56C176.594 24.76 176.594 24.96 176.594 25.16C176.594 25.36 176.559 25.55 176.489 25.73C176.419 25.9 176.289 26.025 176.099 26.105C175.909 26.185 175.709 26.225 175.499 26.225C175.289 26.215 175.089 26.17 174.899 26.09C174.709 26 174.579 25.875 174.509 25.715C174.479 25.625 174.454 25.515 174.434 25.385C174.424 25.245 174.414 25.12 174.404 25.01C174.394 24.84 174.389 24.665 174.389 24.485C174.399 24.295 174.404 24.105 174.404 23.915V18.89C174.404 18.77 174.419 18.615 174.449 18.425C174.479 18.235 174.534 18.075 174.614 17.945ZM176.339 27.59C176.369 27.64 176.394 27.69 176.414 27.74C176.444 27.78 176.469 27.83 176.489 27.89C176.519 28 176.539 28.115 176.549 28.235C176.559 28.355 176.549 28.475 176.519 28.595C176.489 28.705 176.439 28.81 176.369 28.91C176.299 29.01 176.204 29.085 176.084 29.135C175.974 29.185 175.844 29.215 175.694 29.225C175.544 29.235 175.399 29.225 175.259 29.195C175.119 29.165 174.989 29.11 174.869 29.03C174.749 28.95 174.664 28.845 174.614 28.715C174.564 28.575 174.534 28.415 174.524 28.235C174.524 28.045 174.549 27.88 174.599 27.74C174.659 27.59 174.754 27.49 174.884 27.44C175.014 27.38 175.154 27.35 175.304 27.35C175.494 27.34 175.679 27.345 175.859 27.365C176.049 27.385 176.209 27.46 176.339 27.59Z" fill="white"/>
</svg>
