<svg width="230" height="50" viewBox="0 0 230 50" fill="none" xmlns="http://www.w3.org/2000/svg">
<rect width="230" height="50" rx="25" fill="#FF7878"/>
<path d="M93.8951 28.25C94.0551 28.26 94.1951 28.3 94.3151 28.37C94.4351 28.43 94.5201 28.54 94.5701 28.7C94.6801 29.07 94.5501 29.32 94.1801 29.45C94.0601 29.5 93.9351 29.53 93.8051 29.54C93.6851 29.55 93.5751 29.555 93.4751 29.555H86.6651C86.4651 29.555 86.2551 29.555 86.0351 29.555C85.8151 29.555 85.5951 29.55 85.3751 29.54C85.1051 29.53 84.9151 29.445 84.8051 29.285C84.7051 29.125 84.6451 28.93 84.6251 28.7L84.5651 27.71C84.5551 27.6 84.5551 27.47 84.5651 27.32C84.5851 27.16 84.6401 27.025 84.7301 26.915C84.8701 26.775 85.0301 26.685 85.2101 26.645C85.3901 26.605 85.5901 26.585 85.8101 26.585H86.2751C86.3251 26.585 86.3651 26.59 86.3951 26.6C86.4251 26.6 86.4551 26.6 86.4851 26.6H92.8601V26.075H86.3351C86.2851 26.075 86.2301 26.075 86.1701 26.075C86.1201 26.065 86.0651 26.065 86.0051 26.075H85.6451C85.5451 26.075 85.4551 26.075 85.3751 26.075C85.2951 26.075 85.2151 26.065 85.1351 26.045C85.0451 26.025 84.9601 26.005 84.8801 25.985C84.8101 25.965 84.7501 25.915 84.7001 25.835C84.6401 25.725 84.6001 25.62 84.5801 25.52C84.5601 25.42 84.5701 25.31 84.6101 25.19C84.6401 25.11 84.6851 25.05 84.7451 25.01C84.8051 24.96 84.8751 24.92 84.9551 24.89C85.0351 24.86 85.1101 24.84 85.1801 24.83C85.2601 24.81 85.3301 24.795 85.3901 24.785C85.4701 24.775 85.5451 24.77 85.6151 24.77C85.6951 24.76 85.7751 24.755 85.8551 24.755H86.1101C86.1601 24.765 86.2051 24.77 86.2451 24.77C86.2951 24.77 86.3451 24.77 86.3951 24.77H93.0101C93.5201 24.77 93.9101 24.85 94.1801 25.01C94.4501 25.16 94.5851 25.41 94.5851 25.76V26.81C94.5851 26.95 94.5501 27.085 94.4801 27.215C94.4201 27.345 94.3101 27.46 94.1501 27.56C94.0201 27.64 93.8901 27.685 93.7601 27.695C93.6301 27.695 93.5001 27.695 93.3701 27.695H86.4101V28.25H93.8951ZM87.2951 17.27C88.3151 17.34 89.0901 17.665 89.6201 18.245C90.1601 18.825 90.3951 19.65 90.3251 20.72C90.2551 21.62 89.9751 22.315 89.4851 22.805C89.0051 23.295 88.2851 23.54 87.3251 23.54C87.0651 23.54 86.8301 23.54 86.6201 23.54C86.4201 23.54 86.2251 23.53 86.0351 23.51C85.8451 23.48 85.6551 23.43 85.4651 23.36C85.2751 23.29 85.0651 23.185 84.8351 23.045C84.6151 22.905 84.4301 22.735 84.2801 22.535C84.1401 22.335 84.0251 22.12 83.9351 21.89C83.8451 21.65 83.7801 21.405 83.7401 21.155C83.7101 20.905 83.6951 20.66 83.6951 20.42C83.6951 19.88 83.7851 19.405 83.9651 18.995C84.1451 18.585 84.3951 18.245 84.7151 17.975C85.0351 17.705 85.4151 17.51 85.8551 17.39C86.2951 17.27 86.7751 17.23 87.2951 17.27ZM94.5551 22.97C94.5451 23.08 94.5301 23.195 94.5101 23.315C94.4901 23.425 94.4501 23.535 94.3901 23.645C94.3201 23.775 94.2351 23.87 94.1351 23.93C93.9951 24.04 93.8301 24.095 93.6401 24.095C93.4901 24.095 93.3501 24.055 93.2201 23.975C93.0801 23.895 92.9701 23.77 92.8901 23.6C92.8101 23.43 92.7701 23.275 92.7701 23.135V21.515C92.6001 21.515 92.4251 21.51 92.2451 21.5C92.0751 21.48 91.9351 21.46 91.8251 21.44C91.5351 21.4 91.2951 21.315 91.1051 21.185C90.9251 21.045 90.8601 20.81 90.9101 20.48C90.9501 20.26 91.0151 20.095 91.1051 19.985C91.2051 19.865 91.3651 19.8 91.5851 19.79C91.6551 19.79 91.7201 19.79 91.7801 19.79C91.8501 19.78 91.9251 19.775 92.0051 19.775C92.1251 19.775 92.2501 19.775 92.3801 19.775C92.5101 19.765 92.6401 19.76 92.7701 19.76V18.635C92.7701 18.615 92.7651 18.565 92.7551 18.485C92.7551 18.405 92.7551 18.32 92.7551 18.23C92.7551 18.13 92.7601 18.035 92.7701 17.945C92.7901 17.845 92.8151 17.765 92.8451 17.705C92.8951 17.615 92.9701 17.54 93.0701 17.48C93.1701 17.41 93.2901 17.365 93.4301 17.345C93.6001 17.325 93.7551 17.335 93.8951 17.375C94.0451 17.415 94.1601 17.48 94.2401 17.57C94.3801 17.72 94.4701 17.875 94.5101 18.035C94.5401 18.135 94.5551 18.28 94.5551 18.47C94.5651 18.66 94.5651 18.81 94.5551 18.92V19.73C94.5551 20.03 94.5601 20.315 94.5701 20.585C94.5801 20.845 94.5851 21.105 94.5851 21.365C94.5951 21.615 94.5951 21.87 94.5851 22.13C94.5851 22.39 94.5751 22.67 94.5551 22.97ZM88.6001 20.78C88.6501 20.42 88.5901 20.085 88.4201 19.775C88.2601 19.465 88.0201 19.255 87.7001 19.145C87.4901 19.075 87.2601 19.04 87.0101 19.04C86.7601 19.04 86.5201 19.085 86.2901 19.175C86.0701 19.255 85.8751 19.385 85.7051 19.565C85.5451 19.735 85.4451 19.96 85.4051 20.24C85.3751 20.43 85.3751 20.625 85.4051 20.825C85.4351 21.015 85.5001 21.19 85.6001 21.35C85.7101 21.5 85.8601 21.63 86.0501 21.74C86.2401 21.85 86.4801 21.92 86.7701 21.95C86.9701 21.97 87.1651 21.97 87.3551 21.95C87.5551 21.93 87.7351 21.88 87.8951 21.8C88.0651 21.72 88.2101 21.61 88.3301 21.47C88.4501 21.32 88.5351 21.13 88.5851 20.9L88.6001 20.78ZM109.061 28.25C109.221 28.27 109.361 28.31 109.481 28.37C109.601 28.43 109.686 28.54 109.736 28.7C109.856 29.06 109.726 29.315 109.346 29.465C109.226 29.515 109.106 29.545 108.986 29.555C108.866 29.565 108.751 29.57 108.641 29.57H101.666C101.466 29.57 101.256 29.565 101.036 29.555C100.826 29.555 100.611 29.55 100.391 29.54C100.181 29.53 100.006 29.455 99.8663 29.315C99.7263 29.175 99.6463 28.99 99.6263 28.76L99.5813 27.71C99.5713 27.6 99.5713 27.47 99.5813 27.32C99.5913 27.17 99.6413 27.045 99.7313 26.945C99.8713 26.795 100.056 26.7 100.286 26.66C100.526 26.62 100.756 26.6 100.976 26.6C101.116 26.6 101.346 26.6 101.666 26.6C101.996 26.6 102.441 26.605 103.001 26.615C103.561 26.615 104.251 26.615 105.071 26.615C105.901 26.615 106.886 26.615 108.026 26.615V26.075H100.646C100.546 26.075 100.456 26.075 100.376 26.075C100.296 26.075 100.216 26.065 100.136 26.045C100.046 26.025 99.9663 26.005 99.8963 25.985C99.8263 25.965 99.7663 25.915 99.7163 25.835C99.5763 25.625 99.5413 25.41 99.6113 25.19C99.6413 25.11 99.6863 25.05 99.7463 25.01C99.8063 24.96 99.8763 24.92 99.9563 24.89C100.036 24.86 100.111 24.84 100.181 24.83C100.261 24.82 100.331 24.81 100.391 24.8C100.541 24.77 100.696 24.755 100.856 24.755C100.996 24.755 101.146 24.755 101.306 24.755C101.476 24.755 101.676 24.76 101.906 24.77C102.136 24.77 102.401 24.77 102.701 24.77C103.011 24.77 103.371 24.77 103.781 24.77C103.771 24.59 103.771 24.44 103.781 24.32C103.801 24.2 103.811 24.045 103.811 23.855C103.581 23.855 103.281 23.855 102.911 23.855C102.541 23.845 102.161 23.84 101.771 23.84C101.381 23.83 101.006 23.82 100.646 23.81C100.286 23.8 100.006 23.785 99.8063 23.765C99.6463 23.745 99.5163 23.725 99.4163 23.705C99.3263 23.675 99.2163 23.6 99.0863 23.48C99.0163 23.42 98.9663 23.34 98.9363 23.24C98.9063 23.14 98.8913 23.035 98.8913 22.925C98.8913 22.715 98.9563 22.545 99.0863 22.415C99.1563 22.335 99.2513 22.275 99.3713 22.235C99.4913 22.195 99.6063 22.165 99.7163 22.145C99.8263 22.125 99.9213 22.115 100.001 22.115C100.091 22.115 100.141 22.115 100.151 22.115H107.546C107.506 21.985 107.481 21.845 107.471 21.695C107.471 21.545 107.466 21.415 107.456 21.305C107.446 21.235 107.441 21.14 107.441 21.02C107.451 20.9 107.456 20.775 107.456 20.645C107.456 20.505 107.451 20.38 107.441 20.27C107.431 20.15 107.406 20.065 107.366 20.015C107.296 19.925 107.201 19.865 107.081 19.835C106.971 19.795 106.851 19.775 106.721 19.775C106.591 19.765 106.461 19.765 106.331 19.775C106.201 19.775 106.091 19.775 106.001 19.775H101.891C101.831 19.775 101.761 19.78 101.681 19.79C101.601 19.79 101.521 19.795 101.441 19.805C101.251 19.825 101.021 19.825 100.751 19.805C100.581 19.795 100.416 19.77 100.256 19.73C100.096 19.68 99.9563 19.615 99.8363 19.535C99.7163 19.455 99.6313 19.35 99.5813 19.22C99.5313 19.09 99.5313 18.93 99.5813 18.74C99.6613 18.42 99.8563 18.18 100.166 18.02C100.396 17.89 100.636 17.815 100.886 17.795C101.146 17.775 101.406 17.765 101.666 17.765C101.746 17.755 101.826 17.75 101.906 17.75C101.996 17.75 102.081 17.75 102.161 17.75C102.241 17.74 102.321 17.735 102.401 17.735C102.491 17.735 102.581 17.735 102.671 17.735C102.721 17.735 102.841 17.735 103.031 17.735C103.231 17.735 103.461 17.735 103.721 17.735C103.991 17.735 104.276 17.74 104.576 17.75C104.876 17.75 105.156 17.75 105.416 17.75C105.686 17.75 105.916 17.755 106.106 17.765C106.296 17.765 106.416 17.765 106.466 17.765C106.626 17.775 106.781 17.785 106.931 17.795C107.091 17.795 107.251 17.795 107.411 17.795C107.651 17.795 107.891 17.81 108.131 17.84C108.371 17.86 108.606 17.905 108.836 17.975C109.056 18.045 109.181 18.16 109.211 18.32C109.251 18.47 109.286 18.645 109.316 18.845C109.386 19.295 109.411 19.755 109.391 20.225C109.381 20.685 109.351 21.14 109.301 21.59C109.281 21.69 109.266 21.785 109.256 21.875C109.246 21.965 109.226 22.05 109.196 22.13H109.616C109.756 22.14 109.891 22.16 110.021 22.19C110.161 22.22 110.286 22.285 110.396 22.385C110.506 22.465 110.566 22.555 110.576 22.655C110.596 22.755 110.606 22.865 110.606 22.985C110.606 23.135 110.561 23.27 110.471 23.39C110.391 23.51 110.276 23.595 110.126 23.645C109.926 23.725 109.716 23.775 109.496 23.795C109.286 23.805 109.076 23.815 108.866 23.825C108.376 23.845 107.881 23.855 107.381 23.855C106.891 23.855 106.391 23.855 105.881 23.855C105.891 24.035 105.891 24.19 105.881 24.32C105.871 24.45 105.866 24.6 105.866 24.77H108.176C108.686 24.77 109.076 24.85 109.346 25.01C109.616 25.16 109.751 25.41 109.751 25.76V26.825C109.751 26.965 109.716 27.105 109.646 27.245C109.586 27.375 109.476 27.485 109.316 27.575C109.186 27.655 109.056 27.7 108.926 27.71C108.796 27.71 108.666 27.71 108.536 27.71H101.426V28.25H109.061ZM117.736 24.17C117.626 24.25 117.511 24.34 117.391 24.44C117.281 24.54 117.166 24.645 117.046 24.755C116.926 24.855 116.801 24.95 116.671 25.04C116.541 25.13 116.396 25.195 116.236 25.235C116.056 25.285 115.861 25.28 115.651 25.22C115.441 25.16 115.281 25.055 115.171 24.905C115.091 24.785 115.051 24.665 115.051 24.545C115.051 24.425 115.071 24.31 115.111 24.2C115.161 24.08 115.221 23.965 115.291 23.855C115.361 23.745 115.436 23.645 115.516 23.555C115.816 23.205 116.121 22.875 116.431 22.565C116.751 22.245 117.081 21.935 117.421 21.635C117.531 21.545 117.656 21.425 117.796 21.275C117.936 21.115 118.066 20.96 118.186 20.81C118.326 20.63 118.471 20.45 118.621 20.27C118.621 20.09 118.626 19.91 118.636 19.73C118.646 19.58 118.651 19.415 118.651 19.235C118.661 19.055 118.676 18.895 118.696 18.755C118.716 18.575 118.761 18.405 118.831 18.245C118.901 18.085 118.976 17.965 119.056 17.885C119.186 17.765 119.361 17.69 119.581 17.66C119.801 17.62 119.991 17.625 120.151 17.675C120.381 17.745 120.546 17.865 120.646 18.035C120.756 18.205 120.821 18.405 120.841 18.635C120.851 18.725 120.856 18.85 120.856 19.01C120.866 19.17 120.876 19.335 120.886 19.505C120.906 19.665 120.926 19.82 120.946 19.97C120.976 20.12 121.021 20.235 121.081 20.315C121.161 20.435 121.236 20.55 121.306 20.66C121.386 20.77 121.476 20.88 121.576 20.99C121.926 21.38 122.271 21.775 122.611 22.175C122.951 22.565 123.301 22.95 123.661 23.33C123.781 23.45 123.896 23.6 124.006 23.78C124.116 23.96 124.191 24.145 124.231 24.335C124.281 24.515 124.276 24.69 124.216 24.86C124.166 25.02 124.036 25.15 123.826 25.25C123.676 25.32 123.531 25.35 123.391 25.34C123.251 25.32 123.116 25.28 122.986 25.22C122.856 25.15 122.731 25.065 122.611 24.965C122.501 24.865 122.401 24.765 122.311 24.665L119.791 22.28L117.736 24.17ZM115.501 28.505C115.341 28.495 115.181 28.475 115.021 28.445C114.871 28.405 114.736 28.355 114.616 28.295C114.496 28.225 114.396 28.13 114.316 28.01C114.246 27.89 114.211 27.73 114.211 27.53C114.211 27.33 114.276 27.155 114.406 27.005C114.486 26.925 114.586 26.865 114.706 26.825C114.826 26.785 114.941 26.755 115.051 26.735C115.161 26.715 115.256 26.705 115.336 26.705C115.426 26.705 115.476 26.705 115.486 26.705L123.691 26.72C123.951 26.72 124.186 26.725 124.396 26.735C124.616 26.735 124.811 26.805 124.981 26.945C125.191 27.135 125.296 27.35 125.296 27.59C125.296 27.74 125.251 27.88 125.161 28.01C125.071 28.13 124.951 28.215 124.801 28.265C124.601 28.345 124.391 28.4 124.171 28.43C123.961 28.46 123.751 28.48 123.541 28.49C122.811 28.52 122.091 28.53 121.381 28.52C120.671 28.51 119.981 28.505 119.311 28.505C118.591 28.505 117.886 28.51 117.196 28.52C116.516 28.53 115.951 28.525 115.501 28.505ZM139.7 24.11C139.7 24.12 139.695 24.155 139.685 24.215C139.685 24.275 139.67 24.35 139.64 24.44C139.61 24.52 139.565 24.605 139.505 24.695C139.455 24.785 139.38 24.86 139.28 24.92C139.17 24.99 139.055 25.025 138.935 25.025C138.735 25.025 138.57 24.975 138.44 24.875C138.33 24.795 138.245 24.695 138.185 24.575C138.105 24.435 138.05 24.265 138.02 24.065C138 23.855 137.985 23.645 137.975 23.435C137.975 23.215 137.98 23 137.99 22.79C138 22.57 138.005 22.385 138.005 22.235V22.04C137.895 22.05 137.785 22.055 137.675 22.055C137.575 22.055 137.475 22.055 137.375 22.055H137.33V23.72C137.32 23.83 137.305 23.945 137.285 24.065C137.265 24.175 137.225 24.285 137.165 24.395C137.095 24.525 137.01 24.62 136.91 24.68C136.84 24.73 136.78 24.77 136.73 24.8C136.68 24.83 136.61 24.845 136.52 24.845C136.38 24.845 136.24 24.805 136.1 24.725C136 24.665 135.92 24.59 135.86 24.5C135.8 24.41 135.755 24.325 135.725 24.245C135.695 24.165 135.675 24.095 135.665 24.035C135.655 23.965 135.65 23.93 135.65 23.93V18.68C135.64 18.63 135.64 18.52 135.65 18.35C135.67 18.17 135.71 18.02 135.77 17.9C135.87 17.69 136.075 17.57 136.385 17.54C136.555 17.52 136.695 17.53 136.805 17.57C136.915 17.61 137.01 17.675 137.09 17.765C137.16 17.845 137.205 17.925 137.225 18.005C137.245 18.075 137.265 18.15 137.285 18.23C137.315 18.33 137.33 18.435 137.33 18.545C137.34 18.655 137.345 18.765 137.345 18.875C137.335 18.915 137.33 18.975 137.33 19.055V20.375C137.38 20.385 137.47 20.395 137.6 20.405C137.74 20.405 137.88 20.41 138.02 20.42V19.01V18.83C138.01 18.72 138.005 18.615 138.005 18.515C138.015 18.405 138.035 18.295 138.065 18.185C138.105 18.035 138.195 17.885 138.335 17.735C138.495 17.535 138.73 17.455 139.04 17.495C139.3 17.535 139.48 17.665 139.58 17.885C139.64 18.005 139.675 18.15 139.685 18.32C139.705 18.49 139.71 18.595 139.7 18.635V24.11ZM140 28.265C140.05 28.645 139.985 28.94 139.805 29.15C139.685 29.29 139.555 29.375 139.415 29.405C139.275 29.435 139.2 29.45 139.19 29.45H131.69C131.28 29.45 130.925 29.385 130.625 29.255C130.325 29.135 130.175 28.96 130.175 28.73V26.45C130.155 26.23 130.155 26.005 130.175 25.775C130.195 25.565 130.275 25.395 130.415 25.265C130.565 25.135 130.755 25.07 130.985 25.07C131.035 25.07 131.125 25.075 131.255 25.085C131.385 25.095 131.475 25.11 131.525 25.13C131.655 25.17 131.755 25.23 131.825 25.31C131.905 25.38 131.965 25.47 132.005 25.58C132.045 25.68 132.07 25.79 132.08 25.91C132.09 26.02 132.1 26.13 132.11 26.24C132.11 26.29 132.11 26.385 132.11 26.525C132.12 26.665 132.125 26.815 132.125 26.975C132.135 27.125 132.14 27.27 132.14 27.41C132.15 27.55 132.16 27.635 132.17 27.665C132.2 27.675 132.28 27.69 132.41 27.71C132.55 27.72 132.805 27.725 133.175 27.725C133.495 27.725 133.69 27.72 133.76 27.71C133.84 27.7 133.885 27.695 133.895 27.695H139.325C139.325 27.695 139.355 27.705 139.415 27.725C139.485 27.745 139.56 27.78 139.64 27.83C139.72 27.87 139.795 27.93 139.865 28.01C139.935 28.08 139.98 28.165 140 28.265ZM131.075 19.535C130.815 19.535 130.54 19.545 130.25 19.565C129.97 19.585 129.685 19.575 129.395 19.535C129.255 19.515 129.15 19.41 129.08 19.22C129.02 19.03 128.99 18.82 128.99 18.59C129 18.39 129.065 18.245 129.185 18.155C129.315 18.055 129.45 17.98 129.59 17.93C129.76 17.87 129.9 17.84 130.01 17.84C130.13 17.83 130.275 17.82 130.445 17.81C130.555 17.81 130.68 17.815 130.82 17.825C130.97 17.825 131.1 17.825 131.21 17.825H132.17C132.22 17.825 132.265 17.825 132.305 17.825C132.355 17.815 132.405 17.815 132.455 17.825H132.785C132.855 17.825 132.925 17.83 132.995 17.84C133.065 17.84 133.135 17.84 133.205 17.84C133.275 17.84 133.345 17.84 133.415 17.84C133.485 17.84 133.555 17.845 133.625 17.855C133.725 17.855 133.795 17.865 133.835 17.885C133.855 17.895 133.875 17.905 133.895 17.915C133.915 17.915 133.94 17.92 133.97 17.93C134.04 17.98 134.105 18.035 134.165 18.095C134.225 18.145 134.275 18.21 134.315 18.29C134.395 18.43 134.44 18.575 134.45 18.725C134.47 18.875 134.48 19.025 134.48 19.175C134.48 19.385 134.48 19.625 134.48 19.895C134.49 20.155 134.495 20.425 134.495 20.705C134.505 20.975 134.51 21.245 134.51 21.515C134.51 21.775 134.505 22.01 134.495 22.22C134.485 22.47 134.48 22.705 134.48 22.925C134.49 23.135 134.44 23.35 134.33 23.57C134.27 23.7 134.175 23.805 134.045 23.885C133.915 23.965 133.775 24.015 133.625 24.035C133.485 24.045 133.35 24.03 133.22 23.99C133.09 23.94 132.99 23.85 132.92 23.72C132.77 23.45 132.69 23.195 132.68 22.955C132.68 22.705 132.685 22.425 132.695 22.115H129.845C129.835 22.115 129.775 22.11 129.665 22.1C129.565 22.08 129.48 22.01 129.41 21.89C129.36 21.77 129.335 21.63 129.335 21.47C129.335 21.31 129.365 21.175 129.425 21.065C129.475 20.965 129.53 20.91 129.59 20.9C129.65 20.88 129.715 20.86 129.785 20.84C129.845 20.83 129.9 20.82 129.95 20.81C130 20.79 130.065 20.775 130.145 20.765C130.365 20.755 130.63 20.75 130.94 20.75C131.25 20.74 131.525 20.735 131.765 20.735C131.925 20.735 132.075 20.735 132.215 20.735C132.365 20.735 132.525 20.74 132.695 20.75C132.695 20.57 132.69 20.38 132.68 20.18C132.68 19.97 132.675 19.78 132.665 19.61C132.405 19.6 132.14 19.59 131.87 19.58C131.6 19.57 131.335 19.555 131.075 19.535ZM144.711 17.945C144.791 17.815 144.901 17.72 145.041 17.66C145.181 17.6 145.316 17.57 145.446 17.57C145.556 17.57 145.661 17.575 145.761 17.585C145.871 17.585 145.976 17.595 146.076 17.615C146.286 17.675 146.436 17.81 146.526 18.02C146.616 18.22 146.671 18.455 146.691 18.725C146.721 18.985 146.726 19.245 146.706 19.505C146.696 19.765 146.691 19.975 146.691 20.135V24.56C146.691 24.76 146.691 24.96 146.691 25.16C146.691 25.36 146.656 25.55 146.586 25.73C146.516 25.9 146.386 26.025 146.196 26.105C146.006 26.185 145.806 26.225 145.596 26.225C145.386 26.215 145.186 26.17 144.996 26.09C144.806 26 144.676 25.875 144.606 25.715C144.576 25.625 144.551 25.515 144.531 25.385C144.521 25.245 144.511 25.12 144.501 25.01C144.491 24.84 144.486 24.665 144.486 24.485C144.496 24.295 144.501 24.105 144.501 23.915V18.89C144.501 18.77 144.516 18.615 144.546 18.425C144.576 18.235 144.631 18.075 144.711 17.945ZM146.436 27.59C146.466 27.64 146.491 27.69 146.511 27.74C146.541 27.78 146.566 27.83 146.586 27.89C146.616 28 146.636 28.115 146.646 28.235C146.656 28.355 146.646 28.475 146.616 28.595C146.586 28.705 146.536 28.81 146.466 28.91C146.396 29.01 146.301 29.085 146.181 29.135C146.071 29.185 145.941 29.215 145.791 29.225C145.641 29.235 145.496 29.225 145.356 29.195C145.216 29.165 145.086 29.11 144.966 29.03C144.846 28.95 144.761 28.845 144.711 28.715C144.661 28.575 144.631 28.415 144.621 28.235C144.621 28.045 144.646 27.88 144.696 27.74C144.756 27.59 144.851 27.49 144.981 27.44C145.111 27.38 145.251 27.35 145.401 27.35C145.591 27.34 145.776 27.345 145.956 27.365C146.146 27.385 146.306 27.46 146.436 27.59Z" fill="white"/>
</svg>
